<svg width="100%" viewBox="0 0 680 1020" xmlns="http://www.w3.org/2000/svg">
<defs>
  <marker id="arrow" viewBox="0 0 10 10" refX="8" refY="5" markerWidth="6" markerHeight="6" orient="auto-start-reverse">
    <path d="M2 1L8 5L2 9" fill="none" stroke="#555" stroke-width="1.5" stroke-linecap="round" stroke-linejoin="round"/>
  </marker>
  <style>
    text { font-family: Arial, sans-serif; }
    .th { font-size: 14px; font-weight: 600; }
    .ts { font-size: 12px; font-weight: 400; }
    .arr { stroke: #555; stroke-width: 1; fill: none; }
  </style>
</defs>

<!-- ── FRONTEND LAYER ── -->
<rect x="30" y="30" width="620" height="130" rx="14" fill="#E1F5EE" stroke="#0F6E56" stroke-width="0.5"/>
<text class="th" x="340" y="58" text-anchor="middle" dominant-baseline="central" fill="#04342C">Frontend — Next.js 16 / React 19</text>

<rect x="55" y="72" width="130" height="52" rx="8" fill="#9FE1CB" stroke="#085041" stroke-width="0.5"/>
<text class="th" x="120" y="91" text-anchor="middle" dominant-baseline="central" fill="#04342C">Ticker input</text>
<text class="ts" x="120" y="109" text-anchor="middle" dominant-baseline="central" fill="#0F6E56">User enters symbol</text>

<rect x="205" y="72" width="140" height="52" rx="8" fill="#9FE1CB" stroke="#085041" stroke-width="0.5"/>
<text class="th" x="275" y="91" text-anchor="middle" dominant-baseline="central" fill="#04342C">Portfolio dashboard</text>
<text class="ts" x="275" y="109" text-anchor="middle" dominant-baseline="central" fill="#0F6E56">Holdings tracker</text>

<rect x="365" y="72" width="130" height="52" rx="8" fill="#9FE1CB" stroke="#085041" stroke-width="0.5"/>
<text class="th" x="430" y="91" text-anchor="middle" dominant-baseline="central" fill="#04342C">Chart.js graphs</text>
<text class="ts" x="430" y="109" text-anchor="middle" dominant-baseline="central" fill="#0F6E56">Price history</text>

<rect x="515" y="72" width="110" height="52" rx="8" fill="#9FE1CB" stroke="#085041" stroke-width="0.5"/>
<text class="th" x="570" y="91" text-anchor="middle" dominant-baseline="central" fill="#04342C">PDF export</text>
<text class="ts" x="570" y="109" text-anchor="middle" dominant-baseline="central" fill="#0F6E56">via pdf-lib</text>

<!-- frontend → API -->
<line x1="340" y1="160" x2="340" y2="186" class="arr" marker-end="url(#arrow)"/>
<text class="ts" x="352" y="176" dominant-baseline="central" fill="#555">ticker symbol</text>

<!-- ── API LAYER ── -->
<rect x="30" y="188" width="620" height="130" rx="14" fill="#EEEDFE" stroke="#534AB7" stroke-width="0.5"/>
<text class="th" x="340" y="212" text-anchor="middle" dominant-baseline="central" fill="#26215C">API layer — Next.js API routes</text>

<rect x="55" y="230" width="175" height="52" rx="8" fill="#CECBF6" stroke="#3C3489" stroke-width="0.5"/>
<text class="th" x="142" y="249" text-anchor="middle" dominant-baseline="central" fill="#26215C">Yahoo Finance fetch</text>
<text class="ts" x="142" y="267" text-anchor="middle" dominant-baseline="central" fill="#534AB7">Quote, PE, beta, history</text>

<rect x="252" y="230" width="175" height="52" rx="8" fill="#CECBF6" stroke="#3C3489" stroke-width="0.5"/>
<text class="th" x="339" y="249" text-anchor="middle" dominant-baseline="central" fill="#26215C">Duck-Duck-Scrape</text>
<text class="ts" x="339" y="267" text-anchor="middle" dominant-baseline="central" fill="#534AB7">Live news scraping</text>

<rect x="449" y="230" width="175" height="52" rx="8" fill="#CECBF6" stroke="#3C3489" stroke-width="0.5"/>
<text class="th" x="536" y="249" text-anchor="middle" dominant-baseline="central" fill="#26215C">Prisma ORM</text>
<text class="ts" x="536" y="267" text-anchor="middle" dominant-baseline="central" fill="#534AB7">Save to PostgreSQL</text>

<!-- API → LangGraph -->
<line x1="340" y1="318" x2="340" y2="344" class="arr" marker-end="url(#arrow)"/>
<text class="ts" x="352" y="334" dominant-baseline="central" fill="#555">market data + news</text>

<!-- ── LANGGRAPH LAYER ── -->
<rect x="30" y="346" width="620" height="300" rx="14" fill="#FAEEDA" stroke="#854F0B" stroke-width="0.5"/>
<text class="th" x="340" y="370" text-anchor="middle" dominant-baseline="central" fill="#412402">LangGraph AI pipeline — multi-agent state graph</text>

<rect x="240" y="388" width="200" height="48" rx="8" fill="#FAC775" stroke="#633806" stroke-width="0.5"/>
<text class="th" x="340" y="407" text-anchor="middle" dominant-baseline="central" fill="#412402">State graph</text>
<text class="ts" x="340" y="425" text-anchor="middle" dominant-baseline="central" fill="#854F0B">Shared context store</text>

<!-- Agents -->
<rect x="55" y="468" width="160" height="60" rx="8" fill="#F5C4B3" stroke="#993C1D" stroke-width="0.5"/>
<text class="th" x="135" y="489" text-anchor="middle" dominant-baseline="central" fill="#4A1B0C">News scout</text>
<text class="ts" x="135" y="507" text-anchor="middle" dominant-baseline="central" fill="#993C1D">Scrapes + ranks</text>
<text class="ts" x="135" y="521" text-anchor="middle" dominant-baseline="central" fill="#993C1D">latest news</text>

<rect x="260" y="468" width="160" height="60" rx="8" fill="#F5C4B3" stroke="#993C1D" stroke-width="0.5"/>
<text class="th" x="340" y="489" text-anchor="middle" dominant-baseline="central" fill="#4A1B0C">Financial analyst</text>
<text class="ts" x="340" y="507" text-anchor="middle" dominant-baseline="central" fill="#993C1D">Synthesizes data</text>
<text class="ts" x="340" y="521" text-anchor="middle" dominant-baseline="central" fill="#993C1D">via DeepSeek LLM</text>

<rect x="465" y="468" width="160" height="60" rx="8" fill="#F5C4B3" stroke="#993C1D" stroke-width="0.5"/>
<text class="th" x="545" y="489" text-anchor="middle" dominant-baseline="central" fill="#4A1B0C">Risk manager</text>
<text class="ts" x="545" y="507" text-anchor="middle" dominant-baseline="central" fill="#993C1D">Assesses volatility</text>
<text class="ts" x="545" y="521" text-anchor="middle" dominant-baseline="central" fill="#993C1D">+ downside risk</text>

<!-- State → agents -->
<line x1="300" y1="436" x2="175" y2="466" class="arr" marker-end="url(#arrow)"/>
<line x1="340" y1="436" x2="340" y2="466" class="arr" marker-end="url(#arrow)"/>
<line x1="380" y1="436" x2="505" y2="466" class="arr" marker-end="url(#arrow)"/>

<!-- Sequential agent flow -->
<line x1="215" y1="498" x2="258" y2="498" class="arr" marker-end="url(#arrow)"/>
<line x1="420" y1="498" x2="463" y2="498" class="arr" marker-end="url(#arrow)"/>

<!-- DeepSeek-R1 model box -->
<rect x="165" y="566" width="350" height="52" rx="8" fill="#FAC775" stroke="#633806" stroke-width="0.5"/>
<text class="th" x="340" y="585" text-anchor="middle" dominant-baseline="central" fill="#412402">Hugging Face inference</text>
<text class="ts" x="340" y="603" text-anchor="middle" dominant-baseline="central" fill="#854F0B">deepseek-ai/DeepSeek-R1</text>
<line x1="340" y1="528" x2="340" y2="564" class="arr" marker-end="url(#arrow)"/>

<!-- LangGraph → DB -->
<line x1="340" y1="646" x2="340" y2="672" class="arr" marker-end="url(#arrow)"/>
<text class="ts" x="352" y="662" dominant-baseline="central" fill="#555">structured report</text>

<!-- ── DATABASE LAYER ── -->
<rect x="30" y="674" width="620" height="110" rx="14" fill="#F1EFE8" stroke="#5F5E5A" stroke-width="0.5"/>
<text class="th" x="340" y="698" text-anchor="middle" dominant-baseline="central" fill="#2C2C2A">Data layer — Prisma + PostgreSQL</text>

<rect x="65" y="716" width="155" height="52" rx="8" fill="#D3D1C7" stroke="#444441" stroke-width="0.5"/>
<text class="th" x="142" y="735" text-anchor="middle" dominant-baseline="central" fill="#2C2C2A">Portfolio holdings</text>
<text class="ts" x="142" y="753" text-anchor="middle" dominant-baseline="central" fill="#5F5E5A">User stock positions</text>

<rect x="262" y="716" width="155" height="52" rx="8" fill="#D3D1C7" stroke="#444441" stroke-width="0.5"/>
<text class="th" x="339" y="735" text-anchor="middle" dominant-baseline="central" fill="#2C2C2A">Analysis history</text>
<text class="ts" x="339" y="753" text-anchor="middle" dominant-baseline="central" fill="#5F5E5A">Past AI reports</text>

<rect x="460" y="716" width="155" height="52" rx="8" fill="#D3D1C7" stroke="#444441" stroke-width="0.5"/>
<text class="th" x="537" y="735" text-anchor="middle" dominant-baseline="central" fill="#2C2C2A">Users</text>
<text class="ts" x="537" y="753" text-anchor="middle" dominant-baseline="central" fill="#5F5E5A">Profiles + sessions</text>

<!-- DB → output -->
<line x1="340" y1="784" x2="340" y2="810" class="arr" marker-end="url(#arrow)"/>
<text class="ts" x="352" y="800" dominant-baseline="central" fill="#555">analysis + portfolio data</text>

<!-- ── OUTPUT LAYER ── -->
<rect x="30" y="812" width="620" height="110" rx="14" fill="#E1F5EE" stroke="#0F6E56" stroke-width="0.5"/>
<text class="th" x="340" y="836" text-anchor="middle" dominant-baseline="central" fill="#04342C">Output — rendered in Next.js frontend</text>

<rect x="55" y="854" width="145" height="52" rx="8" fill="#9FE1CB" stroke="#085041" stroke-width="0.5"/>
<text class="th" x="127" y="873" text-anchor="middle" dominant-baseline="central" fill="#04342C">AI report</text>
<text class="ts" x="127" y="891" text-anchor="middle" dominant-baseline="central" fill="#0F6E56">Markdown render</text>

<rect x="220" y="854" width="145" height="52" rx="8" fill="#9FE1CB" stroke="#085041" stroke-width="0.5"/>
<text class="th" x="292" y="873" text-anchor="middle" dominant-baseline="central" fill="#04342C">Price charts</text>
<text class="ts" x="292" y="891" text-anchor="middle" dominant-baseline="central" fill="#0F6E56">Chart.js interactive</text>

<rect x="385" y="854" width="145" height="52" rx="8" fill="#9FE1CB" stroke="#085041" stroke-width="0.5"/>
<text class="th" x="457" y="873" text-anchor="middle" dominant-baseline="central" fill="#04342C">Risk summary</text>
<text class="ts" x="457" y="891" text-anchor="middle" dominant-baseline="central" fill="#0F6E56">Volatility + downside</text>

<rect x="550" y="854" width="86" height="52" rx="8" fill="#9FE1CB" stroke="#085041" stroke-width="0.5"/>
<text class="th" x="593" y="873" text-anchor="middle" dominant-baseline="central" fill="#04342C">PDF report</text>
<text class="ts" x="593" y="891" text-anchor="middle" dominant-baseline="central" fill="#0F6E56">Download</text>

<!-- ── LEGEND ── -->
<rect x="30"  y="956" width="12" height="12" rx="2" fill="#9FE1CB" stroke="#085041" stroke-width="0.5"/>
<text class="ts" x="48"  y="966" fill="#333">Frontend / output</text>
<rect x="160" y="956" width="12" height="12" rx="2" fill="#CECBF6" stroke="#3C3489" stroke-width="0.5"/>
<text class="ts" x="178" y="966" fill="#333">API layer</text>
<rect x="255" y="956" width="12" height="12" rx="2" fill="#FAC775" stroke="#633806" stroke-width="0.5"/>
<text class="ts" x="273" y="966" fill="#333">LangGraph AI</text>
<rect x="370" y="956" width="12" height="12" rx="2" fill="#F5C4B3" stroke="#993C1D" stroke-width="0.5"/>
<text class="ts" x="388" y="966" fill="#333">Agents</text>
<rect x="448" y="956" width="12" height="12" rx="2" fill="#D3D1C7" stroke="#444441" stroke-width="0.5"/>
<text class="ts" x="466" y="966" fill="#333">Database</text>

</svg>
